<svg width="50" height="50" viewBox="0 0 50 50" fill="none" xmlns="http://www.w3.org/2000/svg">
<rect opacity="0.08" width="50" height="50" rx="8" fill="#F2994A"/>
<path d="M20.7793 17.6138H19.0206C17.4666 17.6138 16.2068 18.8736 16.2068 20.4276V32.3862C16.2068 33.9403 17.4666 35.2 19.0206 35.2H30.9792C32.5333 35.2 33.793 33.9403 33.793 32.3862V20.4276C33.793 18.8736 32.5333 17.6138 30.9792 17.6138H29.2206M21.8345 25.3517H28.1655M21.8345 29.5724H28.1655M27.8137 19.7241H22.1861C21.4091 19.7241 20.7792 19.0942 20.7792 18.3172V16.2069C20.7792 15.4299 21.4091 14.8 22.1861 14.8H27.8137C28.5907 14.8 29.2206 15.4299 29.2206 16.2069V18.3172C29.2206 19.0942 28.5907 19.7241 27.8137 19.7241Z" stroke="#F2994A" stroke-width="2" stroke-linecap="round" stroke-linejoin="round"/>
</svg>
