<svg width="50" height="50" viewBox="0 0 50 50" fill="none" xmlns="http://www.w3.org/2000/svg">
<rect opacity="0.08" width="50" height="50" rx="3" fill="#3758F9"/>
<path d="M31.2745 28.3873L33.8237 25.8381C34.0402 25.6215 34.1619 25.3278 34.1619 25.0216C34.1619 24.7153 34.0402 24.4216 33.8237 24.2051L32.1984 22.5836C32.0146 23.0198 31.7264 23.404 31.3591 23.7026C30.9919 24.0012 30.5569 24.2049 30.0924 24.2958C29.6279 24.3867 29.1481 24.362 28.6954 24.2239C28.2427 24.0858 27.8309 23.8386 27.4962 23.5039C27.1615 23.1692 26.9143 22.7574 26.7762 22.3047C26.6381 21.852 26.6134 21.3723 26.7043 20.9078C26.7952 20.4433 26.9989 20.0082 27.2975 19.641C27.5961 19.2737 27.9804 18.9855 28.4165 18.8017L26.795 17.1764C26.5785 16.9599 26.2848 16.8383 25.9785 16.8383C25.6723 16.8383 25.3786 16.9599 25.162 17.1764L22.6128 19.7256C22.6128 19.1546 22.4435 18.5964 22.1262 18.1216C21.809 17.6468 21.358 17.2767 20.8305 17.0582C20.3029 16.8396 19.7224 16.7825 19.1623 16.8939C18.6022 17.0053 18.0878 17.2803 17.684 17.684C17.2802 18.0878 17.0052 18.6023 16.8938 19.1624C16.7824 19.7224 16.8396 20.303 17.0581 20.8305C17.2766 21.3581 17.6467 21.809 18.1215 22.1263C18.5963 22.4435 19.1545 22.6129 19.7256 22.6129L17.1763 25.1621C16.9598 25.3787 16.8382 25.6724 16.8382 25.9786C16.8382 26.2848 16.9598 26.5785 17.1763 26.7951L18.8017 28.4166C18.9855 27.9804 19.2737 27.5961 19.6409 27.2976C20.0082 26.999 20.4432 26.7953 20.9077 26.7044C21.3722 26.6135 21.8519 26.6382 22.3046 26.7762C22.7573 26.9143 23.1692 27.1616 23.5038 27.4963C23.8385 27.831 24.0858 28.2428 24.2239 28.6955C24.362 29.1482 24.3866 29.6279 24.2957 30.0924C24.2048 30.5569 24.0011 30.9919 23.7025 31.3592C23.404 31.7264 23.0197 32.0147 22.5835 32.1985L24.205 33.8207C24.4216 34.0372 24.7153 34.1588 25.0215 34.1588C25.3278 34.1588 25.6215 34.0372 25.838 33.8207L28.3873 31.2746C28.3873 31.8456 28.5566 32.4038 28.8738 32.8786C29.1911 33.3534 29.642 33.7235 30.1696 33.942C30.6972 34.1605 31.2777 34.2177 31.8378 34.1063C32.3978 33.9949 32.9123 33.7199 33.3161 33.3161C33.7199 32.9123 33.9948 32.3979 34.1062 31.8378C34.2176 31.2778 34.1605 30.6972 33.9419 30.1697C33.7234 29.6421 33.3534 29.1912 32.8786 28.8739C32.4037 28.5567 31.8455 28.3873 31.2745 28.3873Z" stroke="#3758F9" stroke-width="2" stroke-linecap="round" stroke-linejoin="round"/>
</svg>
