<svg width="50" height="50" viewBox="0 0 50 50" fill="none" xmlns="http://www.w3.org/2000/svg">
<rect opacity="0.08" width="50" height="50" rx="3" fill="#9B51E0"/>
<g clip-path="url(#clip0_3164_25577)">
<path d="M32.1818 23.0909H27.6364V14.9091C27.6364 14.668 27.5406 14.4368 27.3701 14.2663C27.1996 14.0958 26.9684 14 26.7273 14H21.2727C21.0316 14 20.8004 14.0958 20.6299 14.2663C20.4594 14.4368 20.3636 14.668 20.3636 14.9091V17.6364H15.8182C15.5771 17.6364 15.3458 17.7321 15.1754 17.9026C15.0049 18.0731 14.9091 18.3043 14.9091 18.5455V33.0909C14.9091 33.332 15.0049 33.5632 15.1754 33.7337C15.3458 33.9042 15.5771 34 15.8182 34H32.1818C32.4229 34 32.6542 33.9042 32.8246 33.7337C32.9951 33.5632 33.0909 33.332 33.0909 33.0909V24C33.0909 23.7589 32.9951 23.5277 32.8246 23.3572C32.6542 23.1867 32.4229 23.0909 32.1818 23.0909ZM20.3636 32.1818H16.7273V19.4545H20.3636V32.1818ZM25.8182 24V32.1818H22.1818V15.8182H25.8182V24ZM31.2727 32.1818H27.6364V24.9091H31.2727V32.1818Z" fill="#9B51E0"/>
</g>
<defs>
<clipPath id="clip0_3164_25577">
<rect width="20" height="20" fill="white" transform="translate(14 14)"/>
</clipPath>
</defs>
</svg>
