<svg width="50" height="50" viewBox="0 0 50 50" fill="none" xmlns="http://www.w3.org/2000/svg">
<rect width="50" height="50" rx="3" fill="#FFB300" fill-opacity="0.1"/>
<path d="M32.5 15H30C30 14.337 29.7366 13.7011 29.2678 13.2322C28.7989 12.7634 28.163 12.5 27.5 12.5H22.5C21.837 12.5 21.2011 12.7634 20.7322 13.2322C20.2634 13.7011 20 14.337 20 15H17.5C16.5054 15 15.5516 15.3951 14.8483 16.0983C14.1451 16.8016 13.75 17.7554 13.75 18.75V33.75C13.75 34.7446 14.1451 35.6984 14.8483 36.4017C15.5516 37.1049 16.5054 37.5 17.5 37.5H32.5C33.4946 37.5 34.4484 37.1049 35.1517 36.4017C35.8549 35.6984 36.25 34.7446 36.25 33.75V18.75C36.25 17.7554 35.8549 16.8016 35.1517 16.0983C34.4484 15.3951 33.4946 15 32.5 15ZM22.5 15H27.5V17.5H22.5V15ZM33.75 33.75C33.75 34.0815 33.6183 34.3995 33.3839 34.6339C33.1495 34.8683 32.8315 35 32.5 35H17.5C17.1685 35 16.8505 34.8683 16.6161 34.6339C16.3817 34.3995 16.25 34.0815 16.25 33.75V18.75C16.25 18.4185 16.3817 18.1005 16.6161 17.8661C16.8505 17.6317 17.1685 17.5 17.5 17.5H20C20 18.163 20.2634 18.7989 20.7322 19.2678C21.2011 19.7366 21.837 20 22.5 20H27.5C28.163 20 28.7989 19.7366 29.2678 19.2678C29.7366 18.7989 30 18.163 30 17.5H32.5C32.8315 17.5 33.1495 17.6317 33.3839 17.8661C33.6183 18.1005 33.75 18.4185 33.75 18.75V33.75Z" fill="#F4AB00"/>
<path d="M28.75 23.4874L23.3875 28.8624L21.25 26.6124C21.1335 26.4959 20.9951 26.4034 20.8428 26.3404C20.6905 26.2773 20.5273 26.2448 20.3625 26.2448C20.1977 26.2448 20.0345 26.2773 19.8822 26.3404C19.7299 26.4034 19.5915 26.4959 19.475 26.6124C19.3585 26.729 19.266 26.8674 19.2029 27.0196C19.1398 27.1719 19.1074 27.3351 19.1074 27.4999C19.1074 27.6648 19.1398 27.828 19.2029 27.9803C19.266 28.1325 19.3585 28.2709 19.475 28.3874L22.6 31.5124C22.7162 31.6296 22.8545 31.7226 23.0068 31.7861C23.1591 31.8495 23.3225 31.8822 23.4875 31.8822C23.6525 31.8822 23.8159 31.8495 23.9682 31.7861C24.1205 31.7226 24.2588 31.6296 24.375 31.5124L30.625 25.2624C30.8604 25.0138 30.9873 24.6818 30.978 24.3396C30.9686 23.9973 30.8236 23.6728 30.575 23.4374C30.3264 23.2021 29.9944 23.0751 29.6521 23.0845C29.3099 23.0938 28.9854 23.2388 28.75 23.4874Z" fill="#F4AB00"/>
</svg>
